<svg width="342" height="81" viewBox="0 0 342 81" fill="none" xmlns="http://www.w3.org/2000/svg">
<g clip-path="url(#clip0_3208_4917)">
<path fill-rule="evenodd" clip-rule="evenodd" d="M0 0H37.5779C40.4653 0 43.0317 1.3477 44.6836 3.44153L61.665 25.0342C62.0613 25.5403 62.298 26.1747 62.298 26.8669C62.298 27.5579 62.0613 28.1935 61.665 28.7007L44.6836 50.2915C43.0317 52.3861 40.4653 53.7338 37.5779 53.7338H0L21.1306 26.8669L0 0Z" fill="#0083CA"/>
<path fill-rule="evenodd" clip-rule="evenodd" d="M21.1306 26.8669L36.5699 7.23518C37.1698 6.47434 37.5251 5.51687 37.5251 4.47826C37.5251 2.00589 35.5092 0 33.0192 0H0L21.1306 26.8669Z" fill="#00416B"/>
<path d="M184.762 42.5514C184.769 41.3648 184.946 40.2768 185.292 39.2948C185.644 38.3086 186.141 37.4549 186.777 36.7337C187.42 36.0136 188.178 35.4585 189.061 35.0648C189.939 34.6701 190.904 34.4712 191.964 34.4659C193.025 34.4712 193.991 34.6701 194.869 35.0648C195.739 35.4585 196.499 36.0136 197.134 36.7337C197.771 37.4549 198.262 38.3086 198.608 39.2948C198.954 40.2768 199.127 41.3648 199.132 42.5514C199.127 43.7375 198.954 44.8256 198.608 45.8068C198.262 46.7941 197.771 47.6467 197.134 48.369C196.499 49.0846 195.739 49.645 194.869 50.0379C193.991 50.4315 193.025 50.6316 191.964 50.6357C190.904 50.6316 189.939 50.4315 189.061 50.0379C188.178 49.645 187.42 49.0846 186.777 48.369C186.141 47.6467 185.644 46.7941 185.292 45.8068C184.946 44.8256 184.769 43.7375 184.762 42.5514ZM180.24 42.5514C180.247 44.2546 180.536 45.8121 181.1 47.2274C181.669 48.6362 182.473 49.8549 183.517 50.8863C184.555 51.9185 185.791 52.711 187.219 53.2783C188.653 53.8368 190.234 54.1255 191.964 54.1308C193.69 54.1255 195.265 53.8368 196.693 53.2783C198.123 52.711 199.356 51.9185 200.401 50.8863C201.444 49.8549 202.254 48.6362 202.824 47.2274C203.394 45.8121 203.682 44.2546 203.688 42.5514C203.682 40.8493 203.394 39.2906 202.824 37.8761C202.254 36.4684 201.444 35.2479 200.401 34.2153C199.356 33.1842 198.123 32.386 196.693 31.8256C195.265 31.2648 193.69 30.9772 191.964 30.9708C190.234 30.9772 188.653 31.2648 187.219 31.8256C185.791 32.386 184.555 33.1842 183.517 34.2153C182.473 35.2479 181.669 36.4684 181.1 37.8761C180.536 39.2906 180.247 40.8493 180.24 42.5514ZM165.937 24.6825C165.328 24.6866 164.78 24.8267 164.296 25.0984C163.81 25.3765 163.402 25.763 163.079 26.257C162.756 26.7567 162.537 27.3387 162.42 28.0097L164.998 28.7422C165.105 28.3701 165.266 28.0874 165.485 27.8821C165.708 27.6832 165.971 27.5772 166.272 27.5772C166.511 27.5828 166.78 27.6436 167.065 27.7591C167.349 27.8704 167.656 28.0051 167.985 28.1584C168.315 28.3101 168.661 28.4429 169.036 28.5603C169.41 28.6739 169.805 28.7369 170.224 28.7422C170.833 28.7369 171.381 28.598 171.866 28.3305C172.352 28.0599 172.76 27.6832 173.083 27.1888C173.406 26.6959 173.624 26.1193 173.742 25.4482L171.164 24.6825C171.028 25.0482 170.861 25.3373 170.653 25.5373C170.442 25.7415 170.19 25.8411 169.89 25.8464C169.651 25.8411 169.381 25.7811 169.097 25.6645C168.811 25.5479 168.504 25.4143 168.176 25.2656C167.847 25.1158 167.501 24.9765 167.126 24.8655C166.752 24.7478 166.355 24.6866 165.937 24.6825ZM168.081 36.2287L171.598 45.18H164.562L168.081 36.2287ZM156.793 53.7319H161.281L163.357 48.4075H172.769L174.848 53.7319H179.336L170.123 31.3708H166.003L156.793 53.7319ZM147.044 53.7319H151.499V34.7652H158.601V31.3708H139.91V34.7652H147.044V53.7319ZM124.701 34.7652H129.124C129.909 34.7697 130.608 34.9312 131.205 35.2426C131.809 35.5517 132.283 35.9849 132.624 36.5401C132.964 37.0941 133.138 37.7319 133.143 38.4584C133.138 39.2072 132.964 39.8563 132.624 40.4062C132.283 40.9595 131.809 41.3852 131.205 41.6924C130.608 41.9909 129.909 42.1468 129.124 42.1513H124.701V34.7652ZM120.413 53.7319H124.701V45.5789H128.186L133.646 53.7319H138.503L132.338 44.9135C133.394 44.6856 134.309 44.2716 135.085 43.6662C135.862 43.0616 136.458 42.3128 136.883 41.415C137.309 40.5157 137.525 39.5065 137.53 38.392C137.525 37.3564 137.336 36.4118 136.956 35.5517C136.583 34.698 136.045 33.9553 135.36 33.3341C134.667 32.708 133.851 32.2245 132.909 31.8864C131.971 31.5493 130.925 31.3761 129.793 31.3708H120.413V53.7319ZM106.21 36.2287L109.729 45.18H102.693L106.21 36.2287ZM94.9209 53.7319H99.4108L101.488 48.4075H110.901L112.977 53.7319H117.467L108.254 31.3708H104.134L94.9209 53.7319ZM326.726 80.6011H342V75.9432H332.856V58.24H326.726V80.6011ZM315.973 80.6011H322.102V58.24H315.973V80.6011ZM292.657 69.4194C292.663 71.1181 292.96 72.6703 293.541 74.0796C294.12 75.4884 294.942 76.7142 296.009 77.7445C297.074 78.776 298.343 79.5749 299.809 80.1399C301.278 80.706 302.904 80.9947 304.684 81C305.649 81 306.616 80.8939 307.593 80.6951C308.563 80.495 309.523 80.1965 310.474 79.8082C311.422 79.4145 312.337 78.9364 313.226 78.3714L310.779 74.3449C309.909 74.9333 309.045 75.3824 308.173 75.6971C307.308 76.0149 306.42 76.17 305.52 76.1753C304.538 76.17 303.646 76.0085 302.835 75.682C302.031 75.3537 301.333 74.8936 300.754 74.2943C300.167 73.6965 299.72 72.9862 299.403 72.1593C299.083 71.3343 298.927 70.4252 298.921 69.4194C298.927 68.417 299.083 67.5067 299.403 66.6806C299.72 65.8548 300.167 65.1446 300.754 64.5453C301.333 63.9463 302.031 63.4874 302.835 63.1591C303.646 62.8315 304.538 62.6711 305.52 62.6658C306.42 62.6658 307.308 62.8262 308.173 63.1428C309.045 63.4576 309.909 63.9078 310.779 64.4962L313.226 60.4693C312.337 59.9036 311.422 59.4209 310.474 59.0325C309.523 58.6442 308.563 58.3449 307.593 58.1449C306.616 57.9403 305.649 57.8399 304.684 57.8399C302.904 57.8464 301.278 58.1339 299.809 58.6936C298.343 59.2541 297.074 60.0523 296.009 61.0856C294.942 62.1159 294.12 63.3364 293.541 64.7445C292.96 66.1586 292.663 67.7173 292.657 69.4194ZM286.628 53.3145L284.083 49.6548L277.383 54.3139L279.593 57.4739L286.628 53.3145ZM280.667 64.8611L283.213 71.6842H278.121L280.667 64.8611ZM268.707 80.6011H274.871L276.546 76.0756H284.82L286.494 80.6011H292.625L283.513 58.24H277.853L268.707 80.6011ZM253.734 80.6011H259.864V72.3816H268.976V67.7569H259.864V62.8979H270.048V58.24H253.734V80.6011ZM223.754 64.6287C223.76 65.6835 223.932 66.5813 224.262 67.3184C224.592 68.0555 225.033 68.6718 225.59 69.1605C226.148 69.6538 226.779 70.0527 227.472 70.3629C228.17 70.6784 228.89 70.9332 229.632 71.1385C230.374 71.3385 231.096 71.5215 231.793 71.6883C232.492 71.8499 233.116 72.0318 233.674 72.2201C234.232 72.4148 234.679 72.6587 235.009 72.9542C235.338 73.2417 235.506 73.6195 235.511 74.0796C235.506 74.7672 235.204 75.299 234.605 75.6715C234.015 76.0477 233.178 76.236 232.095 76.2406C231.084 76.236 229.973 76.0919 228.774 75.8028C227.567 75.5152 226.305 75.1159 224.994 74.6113L223.621 79.1375C225.227 79.7795 226.779 80.2565 228.271 80.5562C229.767 80.8555 231.207 81.0053 232.597 81C233.921 80.9947 235.12 80.8287 236.216 80.5003C237.303 80.1678 238.247 79.6968 239.04 79.0873C239.839 78.4763 240.453 77.7445 240.882 76.9018C241.317 76.0541 241.535 75.1159 241.54 74.0796C241.535 72.9915 241.367 72.0661 241.038 71.3053C240.709 70.5459 240.264 69.9191 239.705 69.4141C239.146 68.9167 238.515 68.5046 237.822 68.1902C237.125 67.8724 236.404 67.6177 235.662 67.4188C234.92 67.2176 234.2 67.0414 233.502 66.8904C232.809 66.7364 232.178 66.5704 231.619 66.3919C231.062 66.2088 230.614 65.982 230.285 65.7039C229.962 65.4333 229.79 65.0729 229.783 64.6287C229.79 64.1954 229.922 63.8244 230.185 63.5248C230.454 63.2251 230.832 62.993 231.324 62.8367C231.81 62.6752 232.391 62.5994 233.067 62.5994C234.009 62.5994 235.009 62.716 236.064 62.9428C237.125 63.1696 238.224 63.5142 239.363 63.9622L240.737 59.4371C239.301 58.9053 237.912 58.5064 236.567 58.24C235.221 57.9724 233.898 57.8399 232.597 57.8399C231.297 57.8464 230.102 58.0068 229.024 58.3351C227.946 58.6627 227.014 59.1216 226.227 59.727C225.44 60.324 224.837 61.0407 224.406 61.8676C223.977 62.699 223.76 63.6199 223.754 64.6287ZM203.388 69.4194C203.394 68.417 203.538 67.5003 203.822 66.67C204.114 65.8367 204.521 65.1166 205.056 64.512C205.588 63.9025 206.218 63.4372 206.95 63.1043C207.681 62.7718 208.49 62.6047 209.383 62.5994C210.277 62.6047 211.086 62.7718 211.823 63.1043C212.559 63.4372 213.197 63.9025 213.732 64.512C214.269 65.1166 214.681 65.8367 214.971 66.67C215.261 67.5003 215.413 68.417 215.413 69.4194C215.413 70.4252 215.261 71.3385 214.971 72.1722C214.681 73.0021 214.269 73.718 213.732 74.3275C213.197 74.9385 212.559 75.4039 211.823 75.7367C211.086 76.0692 210.277 76.236 209.383 76.2406C208.49 76.236 207.681 76.0692 206.95 75.7367C206.218 75.4039 205.588 74.9385 205.056 74.3275C204.521 73.718 204.114 73.0021 203.822 72.1722C203.538 71.3385 203.394 70.4252 203.388 69.4194ZM197.123 69.4194C197.13 71.1226 197.429 72.6824 198.027 74.0966C198.619 75.5043 199.461 76.7252 200.55 77.7555C201.646 78.7888 202.935 79.5813 204.43 80.1463C205.922 80.706 207.574 80.9947 209.383 81C211.192 80.9947 212.846 80.706 214.341 80.1463C215.844 79.5813 217.138 78.7888 218.233 77.7555C219.326 76.7252 220.168 75.5043 220.767 74.0966C221.364 72.6824 221.671 71.1226 221.677 69.4194C221.671 67.7173 221.364 66.1586 220.767 64.7445C220.168 63.3364 219.326 62.1159 218.233 61.0856C217.138 60.0523 215.844 59.2541 214.341 58.6936C212.846 58.1339 211.192 57.8464 209.383 57.8399C207.574 57.8464 205.922 58.1339 204.43 58.6936C202.935 59.2541 201.646 60.0523 200.55 61.0856C199.461 62.1159 198.619 63.3364 198.027 64.7445C197.429 66.1586 197.13 67.7173 197.123 69.4194ZM187.743 80.6011H193.874V58.24H187.743V80.6011ZM167.41 80.6011H184.261V76.0756H173.542V71.3506H182.651V66.9576H173.542V62.765H183.724V58.24H167.41V80.6011ZM150.895 62.8979H154.214C154.821 62.9032 155.356 63.0198 155.827 63.2519C156.29 63.4874 156.658 63.8127 156.921 64.2297C157.188 64.6449 157.323 65.1336 157.327 65.6933C157.323 66.27 157.188 66.7738 156.921 67.1973C156.658 67.6177 156.29 67.9441 155.827 68.1721C155.356 68.4042 154.821 68.5167 154.214 68.5208H150.895V62.8979ZM145.001 80.6011H150.895V73.181H152.973L157.763 80.6011H164.396L158.636 72.2148C159.612 71.9325 160.449 71.4725 161.152 70.8464C161.862 70.2195 162.403 69.4538 162.783 68.5604C163.163 67.6618 163.352 66.6742 163.358 65.5925C163.352 64.5068 163.152 63.5142 162.756 62.6209C162.358 61.7234 161.795 60.9456 161.069 60.2931C160.344 59.6424 159.477 59.1386 158.484 58.7782C157.484 58.423 156.39 58.2453 155.184 58.24H145.001V80.6011ZM128.486 62.8979H131.803C132.412 62.9032 132.947 63.0198 133.415 63.2519C133.881 63.4874 134.248 63.8127 134.511 64.2297C134.779 64.6449 134.912 65.1336 134.918 65.6933C134.912 66.27 134.779 66.7738 134.511 67.1973C134.248 67.6177 133.881 67.9441 133.415 68.1721C132.947 68.4042 132.412 68.5167 131.803 68.5208H128.486V62.8979ZM122.591 80.6011H128.486V73.181H130.564L135.354 80.6011H141.986L136.225 72.2148C137.202 71.9325 138.039 71.4725 138.743 70.8464C139.452 70.2195 139.993 69.4538 140.374 68.5604C140.754 67.6618 140.942 66.6742 140.948 65.5925C140.942 64.5068 140.741 63.5142 140.345 62.6209C139.948 61.7234 139.385 60.9456 138.658 60.2931C137.933 59.6424 137.067 59.1386 136.075 58.7782C135.075 58.423 133.981 58.2453 132.774 58.24H122.591V80.6011ZM101.084 69.4194C101.092 68.417 101.236 67.5003 101.521 66.67C101.812 65.8367 102.22 65.1166 102.755 64.512C103.287 63.9025 103.917 63.4372 104.648 63.1043C105.379 62.7718 106.189 62.6047 107.082 62.5994C107.976 62.6047 108.786 62.7718 109.521 63.1043C110.259 63.4372 110.896 63.9025 111.432 64.512C111.966 65.1166 112.379 65.8367 112.671 66.67C112.961 67.5003 113.112 68.417 113.112 69.4194C113.112 70.4252 112.961 71.3385 112.671 72.1722C112.379 73.0021 111.966 73.718 111.432 74.3275C110.896 74.9385 110.259 75.4039 109.521 75.7367C108.786 76.0692 107.976 76.236 107.082 76.2406C106.189 76.236 105.379 76.0692 104.648 75.7367C103.917 75.4039 103.287 74.9385 102.755 74.3275C102.22 73.718 101.812 73.0021 101.521 72.1722C101.236 71.3385 101.092 70.4252 101.084 69.4194ZM94.8209 69.4194C94.8263 71.1226 95.1298 72.6824 95.7267 74.0966C96.3179 75.5043 97.1613 76.7252 98.2498 77.7555C99.3439 78.7888 100.634 79.5813 102.13 80.1463C103.62 80.706 105.273 80.9947 107.082 81C108.891 80.9947 110.542 80.706 112.04 80.1463C113.541 79.5813 114.836 78.7888 115.931 77.7555C117.026 76.7252 117.869 75.5043 118.465 74.0966C119.062 72.6824 119.37 71.1226 119.375 69.4194C119.37 67.7173 119.062 66.1586 118.465 64.7445C117.869 63.3364 117.026 62.1159 115.931 61.0856C114.836 60.0523 113.541 59.2541 112.04 58.6936C110.542 58.1339 108.891 57.8464 107.082 57.8399C105.273 57.8464 103.62 58.1339 102.13 58.6936C100.634 59.2541 99.3439 60.0523 98.2498 61.0856C97.1613 62.1159 96.3179 63.3364 95.7267 64.7445C95.1298 66.1586 94.8263 67.7173 94.8209 69.4194ZM73.4164 69.4194C73.4218 71.1181 73.717 72.6703 74.2998 74.0796C74.8803 75.4884 75.6998 76.7142 76.7658 77.7445C77.8331 78.776 79.1009 79.5749 80.5685 80.1399C82.0365 80.706 83.6626 80.9947 85.4418 81C86.4079 81 87.3737 80.8939 88.3505 80.6951C89.3231 80.495 90.2828 80.1965 91.2326 79.8082C92.1812 79.4145 93.0969 78.9364 93.9851 78.3714L91.5384 74.3449C90.668 74.9333 89.8022 75.3824 88.9321 75.6971C88.0663 76.0149 87.1788 76.17 86.2795 76.1753C85.2963 76.17 84.4046 76.0085 83.5938 75.682C82.7892 75.3537 82.0924 74.8936 81.513 74.2943C80.926 73.6965 80.4781 72.9862 80.1616 72.1593C79.8428 71.3343 79.6856 70.4252 79.681 69.4194C79.6856 68.417 79.8428 67.5067 80.1616 66.6806C80.4781 65.8548 80.926 65.1446 81.513 64.5453C82.0924 63.9463 82.7892 63.4874 83.5938 63.1591C84.4046 62.8315 85.2963 62.6711 86.2795 62.6658C87.1788 62.6658 88.0663 62.8262 88.9321 63.1428C89.8022 63.4576 90.668 63.9078 91.5384 64.4962L93.9851 60.4693C93.0969 59.9036 92.1812 59.4209 91.2326 59.0325C90.2828 58.6442 89.3231 58.3449 88.3505 58.1449C87.3737 57.9403 86.4079 57.8399 85.4418 57.8399C83.6626 57.8464 82.0365 58.1339 80.5685 58.6936C79.1009 59.2541 77.8331 60.0523 76.7658 61.0856C75.6998 62.1159 74.8803 63.3364 74.2998 64.7445C73.717 66.1586 73.4218 67.7173 73.4164 69.4194ZM73.785 42.5514C73.7891 44.2546 74.0756 45.8121 74.628 47.2274C75.1861 48.6362 75.9786 49.8549 77.0006 50.8863C78.0238 51.9185 79.2441 52.711 80.6513 53.2783C82.0635 53.8368 83.628 54.1255 85.3415 54.1308C86.7027 54.1308 88.0728 53.9146 89.4393 53.4877C90.8071 53.0666 92.1372 52.434 93.4145 51.603L91.606 48.6408C90.6843 49.2782 89.7463 49.7609 88.7976 50.0998C87.8421 50.4315 86.8828 50.6048 85.9125 50.6048C84.7826 50.5983 83.7553 50.4036 82.8302 50.0153C81.9028 49.6269 81.0985 49.0793 80.423 48.3634C79.7532 47.6467 79.2289 46.7994 78.8661 45.8174C78.4975 44.8365 78.3133 43.7432 78.308 42.5514C78.3133 41.3595 78.4975 40.2651 78.8661 39.2853C79.2289 38.3022 79.7532 37.4549 80.423 36.7379C81.0985 36.0246 81.9028 35.4747 82.8302 35.0875C83.7553 34.698 84.7826 34.5044 85.9125 34.498C86.8828 34.498 87.8421 34.6701 88.7976 35.0029C89.7463 35.3419 90.6843 35.8234 91.606 36.4608L93.4145 33.4986C92.1372 32.6683 90.8071 32.0373 89.4393 31.6093C88.0728 31.1866 86.7027 30.9708 85.3415 30.9708C83.628 30.9772 82.0635 31.2606 80.6513 31.8203C79.2441 32.3808 78.0238 33.1733 77.0006 34.2036C75.9786 35.2298 75.1861 36.4503 74.628 37.8644C74.0756 39.2744 73.7891 40.8387 73.785 42.5514Z" fill="#00416B"/>
</g>
<defs>
<clipPath id="clip0_3208_4917">
<rect width="342" height="81" fill="white"/>
</clipPath>
</defs>
</svg>
