<svg width="849" height="160" viewBox="0 0 849 160" fill="none" xmlns="http://www.w3.org/2000/svg">
<path d="M848.103 0.763428L0.0184631 159.055H848.103V0.763428Z" fill="white"/>
<path d="M598.628 129.853H596.493C595.675 129.848 594.868 129.662 594.132 129.309C593.395 128.957 592.749 128.446 592.239 127.816L582.146 115.08C581.905 114.763 581.774 114.378 581.774 113.981C581.774 113.585 581.905 113.2 582.146 112.883L592.304 100.147C592.798 99.4848 593.443 98.9464 594.188 98.5758C594.933 98.2051 595.756 98.0126 596.59 98.0139H619.024L606.295 113.743L596.914 125.3L598.628 129.853Z" fill="url(#paint0_linear_3213_5061)"/>
<path d="M606.376 113.934L606.279 113.775L596.914 125.301C596.437 125.916 596.196 126.677 596.234 127.45C596.266 127.805 596.371 128.151 596.542 128.466C596.712 128.781 596.946 129.059 597.228 129.284C597.51 129.508 597.836 129.674 598.185 129.772C598.534 129.87 598.899 129.898 599.259 129.854H618.976L606.376 113.934Z" fill="url(#paint1_linear_3213_5061)"/>
<path d="M632.95 86.5994L631.333 82.0941H633.468C634.285 82.0939 635.092 82.2774 635.826 82.6306C636.56 82.9837 637.203 83.4972 637.705 84.1318L647.863 96.8676C648.104 97.1845 648.235 97.57 648.235 97.9661C648.235 98.3622 648.104 98.7477 647.863 99.0646L637.657 111.8C637.159 112.469 636.505 113.012 635.752 113.383C634.998 113.754 634.165 113.942 633.322 113.934H610.904L623.65 98.189L632.95 86.5994Z" fill="url(#paint2_linear_3213_5061)"/>
<path d="M623.553 98.014L623.65 98.1732L632.95 86.6155C633.433 86.0025 633.679 85.2411 633.646 84.4663C633.61 84.1072 633.501 83.759 633.324 83.4428C633.148 83.1266 632.908 82.8491 632.619 82.6272C632.33 82.4053 631.998 82.2436 631.643 82.152C631.289 82.0604 630.919 82.0407 630.556 82.0943H610.904L623.553 98.014Z" fill="url(#paint3_linear_3213_5061)"/>
<path d="M633.484 86.3765C633.859 85.928 634.065 85.3655 634.066 84.7845C634.068 84.4333 634 84.0851 633.866 83.7598C633.731 83.4345 633.533 83.1385 633.282 82.8887C633.031 82.6389 632.733 82.4401 632.404 82.3038C632.075 82.1674 631.722 82.0962 631.365 82.0941H630.67C631.022 82.0983 631.371 82.1707 631.695 82.3074C632.019 82.4441 632.313 82.6422 632.559 82.8906C632.805 83.139 632.999 83.4326 633.13 83.7549C633.261 84.0771 633.327 84.4216 633.322 84.7686C633.329 85.351 633.122 85.9162 632.74 86.3606L623.553 98.0138L610.953 113.934L633.484 86.3765Z" fill="#14B9ED"/>
<path d="M596.445 125.507C596.075 125.959 595.87 126.519 595.862 127.099C595.851 127.456 595.913 127.811 596.044 128.144C596.175 128.476 596.372 128.78 596.623 129.036C596.875 129.293 597.176 129.498 597.51 129.638C597.843 129.778 598.201 129.851 598.563 129.853H599.259C598.54 129.837 597.856 129.541 597.356 129.032C596.857 128.522 596.581 127.839 596.59 127.131C596.595 126.548 596.807 125.985 597.189 125.539L606.376 113.934L618.976 98.0139L596.445 125.507Z" fill="#FFD400"/>
<path d="M732.294 104.477C731.159 104.464 730.029 104.625 728.945 104.955C727.38 105.386 725.996 106.302 724.999 107.566C723.991 108.899 723.427 110.506 723.381 112.167V129.678H728.104C728.246 129.678 728.382 129.623 728.482 129.524C728.582 129.426 728.638 129.292 728.638 129.153V112.596C728.604 111.856 728.852 111.129 729.334 110.559C729.877 110.115 730.541 109.838 731.242 109.763C731.86 109.689 732.484 109.689 733.102 109.763H733.216C733.377 109.761 733.535 109.717 733.675 109.636C733.814 109.555 733.929 109.44 734.008 109.301L736.45 105.162C735.115 104.659 733.69 104.427 732.261 104.477" fill="#00416B"/>
<path d="M718.367 104.478C717.233 104.46 716.102 104.622 715.019 104.955C713.458 105.387 712.08 106.302 711.089 107.566C710.075 108.896 709.509 110.505 709.472 112.167V129.679H714.195C714.265 129.679 714.334 129.665 714.399 129.639C714.464 129.612 714.522 129.573 714.572 129.525C714.621 129.476 714.661 129.418 714.688 129.354C714.714 129.291 714.728 129.222 714.728 129.153V112.597C714.702 111.857 714.949 111.133 715.424 110.559C715.969 110.118 716.631 109.841 717.332 109.763C717.95 109.69 718.575 109.69 719.192 109.763H719.306C719.466 109.755 719.622 109.709 719.76 109.629C719.898 109.548 720.014 109.436 720.098 109.301L722.605 105.114C721.236 104.66 719.796 104.444 718.351 104.478" fill="#00416B"/>
<path d="M677.01 123.263C676.913 123.148 676.791 123.056 676.655 122.993C676.518 122.93 676.368 122.897 676.217 122.896C676.041 122.89 675.869 122.947 675.732 123.056C674.302 123.893 672.695 124.395 671.036 124.521C669.377 124.647 667.711 124.394 666.168 123.782C664.625 123.17 663.246 122.215 662.139 120.993C661.032 119.77 660.227 118.312 659.786 116.733C659.346 115.154 659.282 113.496 659.599 111.889C659.917 110.281 660.607 108.767 661.617 107.466C662.626 106.164 663.927 105.109 665.419 104.384C666.911 103.658 668.552 103.282 670.216 103.283C672.163 103.264 674.076 103.788 675.732 104.796C675.887 104.905 676.075 104.961 676.265 104.955C676.573 104.941 676.863 104.81 677.074 104.589L679.775 101.198C677.024 99.145 673.669 98.0276 670.216 98.0139C667.647 97.9913 665.11 98.5712 662.814 99.7057C660.518 100.84 658.53 102.497 657.014 104.538C655.498 106.579 654.498 108.946 654.096 111.444C653.694 113.941 653.903 116.497 654.704 118.899C655.506 121.301 656.877 123.481 658.704 125.258C660.532 127.035 662.763 128.358 665.214 129.118C667.664 129.877 670.263 130.051 672.795 129.625C675.327 129.2 677.72 128.186 679.775 126.669L677.01 123.263Z" fill="#00416B"/>
<path d="M748.824 109.158C750.488 109.164 752.109 109.681 753.46 110.637C754.811 111.593 755.826 112.94 756.361 114.491H741.319C741.851 112.944 742.859 111.599 744.205 110.643C745.55 109.687 747.165 109.168 748.824 109.158ZM748.824 104.127C747.114 104.127 745.421 104.459 743.841 105.103C742.261 105.747 740.826 106.691 739.617 107.881C738.408 109.071 737.449 110.484 736.795 112.038C736.14 113.593 735.803 115.26 735.803 116.943C735.803 118.626 736.14 120.292 736.795 121.847C737.449 123.402 738.408 124.815 739.617 126.005C740.826 127.195 742.261 128.139 743.841 128.783C745.421 129.427 747.114 129.758 748.824 129.758H749.196C752.072 129.874 754.91 129.069 757.283 127.466L757.768 127.147C757.768 127.147 755.1 123.74 755.1 123.677C755.009 123.568 754.895 123.479 754.767 123.416C754.639 123.352 754.499 123.317 754.356 123.311C754.194 123.324 754.036 123.362 753.886 123.422C752.322 124.21 750.597 124.64 748.84 124.68C747.198 124.682 745.595 124.185 744.252 123.256C742.908 122.327 741.889 121.011 741.335 119.49H761.246C761.315 119.492 761.384 119.48 761.449 119.456C761.514 119.431 761.573 119.394 761.622 119.346C761.672 119.299 761.712 119.242 761.739 119.179C761.766 119.116 761.78 119.049 761.78 118.98V117.516V116.927C761.79 115.246 761.463 113.58 760.816 112.025C760.17 110.469 759.217 109.055 758.013 107.864C756.808 106.673 755.376 105.728 753.799 105.084C752.222 104.44 750.531 104.109 748.824 104.111V104.127Z" fill="#00416B"/>
<path d="M765.451 129.853C765.38 129.858 765.308 129.848 765.241 129.823C765.175 129.798 765.114 129.76 765.063 129.71C765.013 129.66 764.974 129.6 764.948 129.535C764.923 129.469 764.913 129.398 764.918 129.328V105.449C764.918 105.309 764.974 105.176 765.074 105.077C765.174 104.979 765.31 104.923 765.451 104.923H769.657C769.726 104.923 769.795 104.937 769.859 104.963C769.922 104.99 769.98 105.029 770.028 105.078C770.077 105.127 770.115 105.185 770.14 105.249C770.165 105.312 770.176 105.38 770.174 105.449V129.328C770.176 129.396 770.165 129.464 770.14 129.528C770.115 129.592 770.077 129.65 770.028 129.699C769.98 129.748 769.922 129.787 769.859 129.813C769.795 129.84 769.726 129.853 769.657 129.853H765.451Z" fill="#00416B"/>
<path d="M693.75 109.03C692.192 109.03 690.669 109.485 689.374 110.337C688.078 111.189 687.069 112.4 686.473 113.816C685.876 115.233 685.72 116.792 686.024 118.296C686.328 119.8 687.078 121.181 688.18 122.266C689.282 123.35 690.685 124.088 692.213 124.387C693.741 124.686 695.325 124.533 696.764 123.946C698.204 123.359 699.434 122.366 700.299 121.091C701.165 119.816 701.627 118.317 701.627 116.783C701.631 115.764 701.43 114.754 701.036 113.812C700.642 112.869 700.062 112.013 699.329 111.292C698.597 110.571 697.727 110 696.769 109.612C695.812 109.224 694.786 109.026 693.75 109.03ZM693.75 129.726C691.143 129.726 688.594 128.965 686.426 127.54C684.259 126.114 682.569 124.088 681.571 121.717C680.573 119.346 680.312 116.737 680.821 114.22C681.33 111.704 682.585 109.392 684.429 107.577C686.272 105.763 688.621 104.527 691.178 104.026C693.735 103.526 696.386 103.783 698.795 104.765C701.203 105.747 703.262 107.41 704.71 109.543C706.159 111.677 706.932 114.185 706.932 116.752C706.949 118.466 706.621 120.167 705.966 121.756C705.311 123.345 704.343 124.79 703.117 126.008C701.891 127.227 700.432 128.194 698.825 128.854C697.217 129.514 695.492 129.854 693.75 129.853V129.726Z" fill="#00416B"/>
<path d="M785.912 109.238C784.371 109.241 782.866 109.693 781.587 110.537C780.307 111.382 779.31 112.58 778.722 113.982C778.134 115.383 777.981 116.925 778.283 118.412C778.584 119.899 779.326 121.265 780.415 122.337C781.505 123.409 782.892 124.139 784.403 124.436C785.914 124.733 787.48 124.582 788.904 124.003C790.328 123.424 791.546 122.443 792.404 121.184C793.262 119.924 793.721 118.443 793.724 116.927C793.72 114.889 792.896 112.935 791.431 111.494C789.967 110.053 787.983 109.242 785.912 109.238V109.238ZM785.912 129.742C783.327 129.742 780.8 128.988 778.651 127.574C776.502 126.161 774.827 124.152 773.838 121.802C772.849 119.451 772.59 116.865 773.094 114.37C773.598 111.874 774.843 109.582 776.671 107.783C778.499 105.984 780.827 104.759 783.362 104.263C785.897 103.767 788.525 104.021 790.913 104.995C793.301 105.969 795.342 107.617 796.778 109.733C798.214 111.848 798.981 114.335 798.981 116.879C798.983 118.569 798.646 120.242 797.99 121.804C797.334 123.366 796.372 124.784 795.158 125.979C793.944 127.174 792.502 128.122 790.916 128.767C789.329 129.413 787.629 129.744 785.912 129.742V129.742Z" fill="#00416B"/>
<path d="M813.813 114.953C812.731 114.517 811.61 114.181 810.465 113.95C808.604 113.488 806.858 113.377 806.211 112.358C805.948 111.945 805.856 111.448 805.956 110.971C806.055 110.494 806.338 110.072 806.744 109.795C807.62 109.316 808.6 109.056 809.601 109.036C810.602 109.017 811.593 109.239 812.486 109.683C812.745 109.795 813.764 110.368 813.764 110.368C813.903 110.461 814.065 110.515 814.233 110.527C814.393 110.524 814.55 110.483 814.691 110.409C814.831 110.334 814.952 110.227 815.042 110.097L817.695 106.754L817.274 106.388C816.999 106.181 816.627 105.974 816.255 105.751C814.236 104.61 811.952 104.001 809.623 103.984H809.3C801.698 104.143 800.63 109.428 800.63 111.307C800.615 112.565 800.955 113.802 801.612 114.882C802.268 115.961 803.217 116.84 804.351 117.42C806.568 118.321 808.863 119.025 811.209 119.522C811.597 119.629 811.959 119.814 812.271 120.066C812.583 120.319 812.838 120.632 813.02 120.986C813.125 121.25 813.18 121.531 813.182 121.814C813.209 122.401 813.026 122.978 812.666 123.446C812.305 123.915 811.79 124.244 811.209 124.377C810.078 124.62 808.906 124.603 807.784 124.327C806.662 124.051 805.62 123.523 804.739 122.785L804.318 122.467C804.196 122.44 804.069 122.44 803.946 122.467C803.789 122.473 803.635 122.513 803.495 122.584C803.355 122.656 803.233 122.757 803.138 122.881L800.533 126.176C800.533 126.176 801.439 126.908 801.763 127.115C803.951 128.752 806.617 129.651 809.365 129.678H809.462C816.805 129.678 818.503 124.552 818.503 121.718C818.483 120.26 818.036 118.839 817.215 117.625C816.395 116.41 815.236 115.455 813.877 114.873" fill="#00416B"/>
<defs>
<linearGradient id="paint0_linear_3213_5061" x1="618.361" y1="97.2179" x2="587.457" y2="121.733" gradientUnits="userSpaceOnUse">
<stop stop-color="#FFDC04"/>
<stop offset="0.9" stop-color="#D29E01"/>
<stop offset="1" stop-color="#FFDC04"/>
</linearGradient>
<linearGradient id="paint1_linear_3213_5061" x1="618.976" y1="121.766" x2="596.234" y2="121.766" gradientUnits="userSpaceOnUse">
<stop stop-color="#D29E01"/>
<stop offset="1" stop-color="#AB5917"/>
</linearGradient>
<linearGradient id="paint2_linear_3213_5061" x1="611.487" y1="114.65" x2="642.408" y2="90.1831" gradientUnits="userSpaceOnUse">
<stop stop-color="#00537E"/>
<stop offset="0.9" stop-color="#1CA9E1"/>
<stop offset="1" stop-color="#107BBF"/>
</linearGradient>
<linearGradient id="paint3_linear_3213_5061" x1="630.573" y1="79.8973" x2="617.438" y2="90.3201" gradientUnits="userSpaceOnUse">
<stop stop-color="#15263F"/>
<stop offset="1" stop-color="#054168"/>
</linearGradient>
</defs>
</svg>
